<svg width="22" height="36" viewBox="0 0 22 36" fill="none" xmlns="http://www.w3.org/2000/svg">
<path d="M7.37459 26.8111L3.40065 32.6523C3.24121 32.8867 3.18872 33.1777 3.25621 33.4529C3.3237 33.7282 3.50485 33.9619 3.75459 34.096C4.83002 34.6731 6.05935 35 7.36207 35C11.4124 35 14.7258 31.8482 14.9845 27.8627C15.2044 26.2764 15.7105 24.7819 16.449 23.4324C16.7721 23.008 17.2798 22.737 17.8508 22.737C18.3469 22.737 18.7937 22.9409 19.1148 23.2722C19.3547 23.5197 19.7051 23.6262 20.0422 23.554C20.3792 23.4819 20.6553 23.2413 20.7729 22.9173C20.9186 22.5157 20.9976 22.0833 20.9976 21.6347C20.9976 19.8694 19.7819 18.3902 18.1429 17.9846C13.4548 16.0501 10.1582 11.4349 10.1582 6.05199C10.1582 4.7422 10.3531 3.47973 10.7147 2.29103C10.831 1.90876 10.7085 1.49395 10.4033 1.23609C10.098 0.978235 9.6686 0.926838 9.31113 1.10538C7.17719 2.17119 5.33373 3.72989 3.92917 5.63206C3.86264 5.72215 3.81173 5.82277 3.77854 5.92973C3.63483 6.39292 3.55075 6.88037 3.55075 7.36167C3.55075 7.45996 3.55425 7.55743 3.56112 7.65397C3.44568 7.6239 3.32414 7.61429 3.2019 7.62748C2.85394 7.665 2.55092 7.88171 2.40293 8.19886C2.18439 8.66722 1.89714 9.30259 1.75374 9.84177C1.61972 10.3457 1.61271 10.8527 1.7503 11.4002C1.80288 11.6095 1.90292 11.8136 2.01476 11.995C1.89579 12.0035 1.77762 12.0334 1.66608 12.0851C1.3483 12.2324 1.13073 12.5352 1.09254 12.8834C1.03294 13.4266 1.00239 13.9783 1.00239 14.5368C1.00239 14.8969 1.06171 15.4745 1.35792 15.9833C1.22602 16.1556 1.152 16.3686 1.152 16.5911C1.152 16.9452 1.15977 17.3839 1.23932 17.812C1.31936 18.2427 1.48554 18.742 1.86186 19.1626C1.94373 19.2541 2.02854 19.3391 2.11677 19.4174C2.0096 19.662 2.00339 19.9429 2.10663 20.1963C2.38644 20.8829 2.71557 21.544 3.08956 22.1752L7.37459 26.8111ZM7.37459 26.8111C5.66465 25.6064 4.218 24.0535 3.13734 22.2552L3.13667 22.2541L3.1156 22.219L3.11485 22.2177L3.08958 22.1752L7.37459 26.8111Z" stroke="black" stroke-width="2" stroke-linejoin="round"/>
</svg>
